<svg id="beb30dac-d294-4509-9344-a9ee4e2a1746" data-name="Layer 1" xmlns="http://www.w3.org/2000/svg" width="50" height="50" viewBox="0 0 50 50"><title>1</title><path d="M35.32,48.21h-.09a.62.62,0,0,1-.5-.42L33.79,45a.6.6,0,0,1,0-.47.58.58,0,0,1,.36-.31.63.63,0,0,1,.19,0,.62.62,0,0,1,.59.42l.33,1a.31.31,0,0,0,.26.21h0a.33.33,0,0,0,.26-.13l.81-1.22a.62.62,0,0,1,.51-.28.65.65,0,0,1,.2,0l.83.27.1,0a.33.33,0,0,0,.23-.1.35.35,0,0,0,.06-.34L37,40.38a.32.32,0,0,0-.28-.19h0a.33.33,0,0,0-.28.18,2.13,2.13,0,0,1-1.14,1.23,1.32,1.32,0,0,1-.44.08,2.81,2.81,0,0,1-1.36-.49.41.41,0,0,0-.16,0h-.1a.3.3,0,0,0-.18.17l-2.79,6.49a.6.6,0,0,1-.51.38h-.06a.63.63,0,0,1-.52-.27l-1.47-2.21a.3.3,0,0,0-.26-.14h-.1l-2.12.71a.69.69,0,0,1-.2,0,.63.63,0,0,1-.46-.2.62.62,0,0,1-.11-.66l2.61-6.1a.3.3,0,0,0-.24-.43,2.22,2.22,0,0,1-1.64-.78,2.59,2.59,0,0,1-.16-2,2.82,2.82,0,0,0,.07-1,2.26,2.26,0,0,0-.59-.73,2.63,2.63,0,0,1-1-1.78,2.63,2.63,0,0,1,1-1.76,2.39,2.39,0,0,0,.61-.74,2.82,2.82,0,0,0-.07-1,2.58,2.58,0,0,1,.16-2,2.4,2.4,0,0,1,1.81-.8,2.3,2.3,0,0,0,.91-.23,2.44,2.44,0,0,0,.5-.85,2.52,2.52,0,0,1,1.3-1.55,1.27,1.27,0,0,1,.44-.08,3.19,3.19,0,0,1,1.45.53,2.42,2.42,0,0,0,.9.39,2.24,2.24,0,0,0,.9-.39,3.31,3.31,0,0,1,1.46-.53,1.27,1.27,0,0,1,.44.08c.69.23,1,.93,1.3,1.55a2.39,2.39,0,0,0,.49.84,2.13,2.13,0,0,0,.92.24,2.4,2.4,0,0,1,1.81.8,2.63,2.63,0,0,1,.16,2,2.82,2.82,0,0,0-.07,1,2.34,2.34,0,0,0,.6.74,2.63,2.63,0,0,1,1,1.76,2.63,2.63,0,0,1-1,1.77,2.24,2.24,0,0,0-.61.74,2.77,2.77,0,0,0,.07,1,2.61,2.61,0,0,1-.16,2,2.22,2.22,0,0,1-1.64.78.3.3,0,0,0-.24.43l2.61,6.1a.62.62,0,0,1-.11.66.64.64,0,0,1-.46.21h0a.71.71,0,0,1-.2,0l-2.13-.71h-.09a.3.3,0,0,0-.26.14l-1.47,2.21A.63.63,0,0,1,35.32,48.21Zm-7.47-4.05a.62.62,0,0,1,.51.28l.91,1.37a.31.31,0,0,0,.26.14h0a.32.32,0,0,0,.26-.19l1.69-3.94a.31.31,0,0,0-.29-.43.28.28,0,0,0-.13,0,2.1,2.1,0,0,1-.94.25,1.25,1.25,0,0,1-.43-.07,2.13,2.13,0,0,1-1.14-1.23.33.33,0,0,0-.28-.18h0a.32.32,0,0,0-.28.19l-1.58,3.67a.35.35,0,0,0,.06.34.33.33,0,0,0,.23.1l.1,0,.83-.27A.65.65,0,0,1,27.85,44.16Zm2.36-19.29A.32.32,0,0,0,30,25a3.9,3.9,0,0,0-.41.78,3.41,3.41,0,0,1-.88,1.32,3.15,3.15,0,0,1-1.49.47,2.3,2.3,0,0,0-.92.23.3.3,0,0,0-.12.21,3.75,3.75,0,0,0,.12.91,3.65,3.65,0,0,1,0,1.61,3.21,3.21,0,0,1-.92,1.25c-.42.42-.61.64-.64.83a.28.28,0,0,0,0,.13c0,.18.22.38.63.79h0a3.37,3.37,0,0,1,.92,1.26,3.65,3.65,0,0,1,0,1.61,2.42,2.42,0,0,0-.07,1,.32.32,0,0,0,.17.19,4.94,4.94,0,0,0,.78.13h0a3.15,3.15,0,0,1,1.49.47,3.28,3.28,0,0,1,.87,1.32,4.92,4.92,0,0,0,.42.77.3.3,0,0,0,.24.12l.09,0a3.94,3.94,0,0,0,.7-.34,3.17,3.17,0,0,1,1.51-.54,3.17,3.17,0,0,1,1.52.54,3.94,3.94,0,0,0,.7.34l.09,0a.3.3,0,0,0,.24-.12,4.93,4.93,0,0,0,.41-.76,3.37,3.37,0,0,1,.88-1.33,3.15,3.15,0,0,1,1.49-.47,2.35,2.35,0,0,0,.92-.23.3.3,0,0,0,.12-.21,4,4,0,0,0-.12-.91,3.51,3.51,0,0,1,0-1.61,3.37,3.37,0,0,1,.92-1.26h0a2.55,2.55,0,0,0,.63-.78.49.49,0,0,0,0-.17,2.52,2.52,0,0,0-.64-.79,3.31,3.31,0,0,1-.92-1.26,3.51,3.51,0,0,1,0-1.61,2.42,2.42,0,0,0,.07-1,.3.3,0,0,0-.17-.18,3.3,3.3,0,0,0-.78-.14h0a3.15,3.15,0,0,1-1.49-.47,3.28,3.28,0,0,1-.87-1.32,5.66,5.66,0,0,0-.42-.78.32.32,0,0,0-.24-.11l-.09,0a4.08,4.08,0,0,0-.69.33,3.29,3.29,0,0,1-1.53.55A3.32,3.32,0,0,1,31,25.23a5,5,0,0,0-.7-.35Z"/><path d="M32.51,37.94a5.3,5.3,0,1,1,5.3-5.3A5.31,5.31,0,0,1,32.51,37.94Zm0-9.34a4,4,0,1,0,4.05,4A4,4,0,0,0,32.51,28.6Z"/><path d="M10.1,41.67a.63.63,0,0,1-.63-.62V4.62A.63.63,0,0,1,10.1,4H40a.62.62,0,0,1,.62.62V24.24a.63.63,0,0,1-1.25,0V5.56a.3.3,0,0,0-.31-.31H11a.31.31,0,0,0-.31.31V40.12a.31.31,0,0,0,.31.31H23.17a.62.62,0,1,1,0,1.24Z"/><path d="M16.64,38.87a.63.63,0,0,1-.63-.62,3.11,3.11,0,0,0-3.11-3.11.63.63,0,0,1-.62-.63V11.16a.62.62,0,0,1,.62-.62A3.12,3.12,0,0,0,16,7.42a.63.63,0,0,1,.63-.62H33.45a.62.62,0,0,1,.62.62,3.12,3.12,0,0,0,3.12,3.12.62.62,0,0,1,.62.62V22.37a.63.63,0,0,1-1.25,0V12a.3.3,0,0,0-.25-.3,4.37,4.37,0,0,1-3.4-3.4.3.3,0,0,0-.3-.25H17.48a.31.31,0,0,0-.31.25,4.35,4.35,0,0,1-3.4,3.4.31.31,0,0,0-.25.3V33.67a.32.32,0,0,0,.25.31,4.34,4.34,0,0,1,3.4,3.4.32.32,0,0,0,.31.25h4.76a.62.62,0,0,1,0,1.24Z"/><path d="M21.31,14.59a.63.63,0,1,1,0-1.25h8.4a.63.63,0,1,1,0,1.25Z"/><path d="M16.64,19.26a.63.63,0,1,1,0-1.25H33.45a.63.63,0,0,1,0,1.25Z"/><path d="M16.64,23a.62.62,0,1,1,0-1.24H26.91a.62.62,0,0,1,0,1.24Z"/><path d="M16.64,26.73a.63.63,0,1,1,0-1.25h5.6a.63.63,0,0,1,0,1.25Z"/><path d="M16.64,30.47a.63.63,0,1,1,0-1.25h5.6a.63.63,0,0,1,0,1.25Z"/></svg>