<svg id="e777a565-d705-4a37-9191-5c383b7f7610" data-name="Layer 1" xmlns="http://www.w3.org/2000/svg" width="50" height="50" viewBox="0 0 50 50"><title>1</title><path d="M46.62,36.2a3.4,3.4,0,0,0-2.07-1.59L33.16,31.46l.08-8.28H45.38a.85.85,0,0,0,0-1.7H33.25l.12-13.33a2.59,2.59,0,0,0-.88-1.73,2.79,2.79,0,0,0-1.84-.86H23.22a5.24,5.24,0,0,0-3.4-1.21,5.55,5.55,0,0,0-4,1.82.84.84,0,0,0,0,1.14L21.09,13a.84.84,0,0,0,1.18,0,5.54,5.54,0,0,0,1.92-5.78h6.46a1.27,1.27,0,0,1,.66.4,1.29,1.29,0,0,1,.36.49l-.2,23H22.6L9.11,17.65a3.43,3.43,0,0,0-4.85,4.84L18.76,37a3.55,3.55,0,0,0,.62.48,1.08,1.08,0,0,0,0,.19V45a.85.85,0,0,0,.85.85H32.52a.85.85,0,0,0,.85-.85V38.62l9.4,2.6a3.41,3.41,0,0,0,.89.12,3.48,3.48,0,0,0,1.71-.46,3.43,3.43,0,0,0,1.25-4.68Zm-24.9-25-4.1-4.39a3.84,3.84,0,0,1,2.2-.73,3.53,3.53,0,0,1,2.27.78.1.1,0,0,0,0,0A3.39,3.39,0,0,1,21.72,11.17Zm10,27.1v5.88H21.05V38H31.1l.6.16A.53.53,0,0,0,31.67,38.27Zm13.65.09a1.73,1.73,0,0,1-.8,1,1.7,1.7,0,0,1-1.3.17L31.44,36.32a.85.85,0,0,0-.23,0h-10a1.74,1.74,0,0,1-1.22-.5L5.46,21.29a1.73,1.73,0,1,1,2.45-2.44L21.65,32.59a.83.83,0,0,0,.6.24h9.29a1.81,1.81,0,0,1,.58.1l12,3.32A1.72,1.72,0,0,1,45.32,38.36Z"/></svg>