<svg id="fb8c5a0b-b63e-416c-9c09-98f29970fc7f" data-name="Layer 1" xmlns="http://www.w3.org/2000/svg" width="50" height="50" viewBox="0 0 50 50"><title>social-google</title><g id="afe54039-65b9-41ad-9592-e3d80a2d0206" data-name="fGs15O.tif"><path d="M27.45,1A26.86,26.86,0,0,1,33,2.26a21.4,21.4,0,0,1,8.38,4.93c-2.25,2.23-6.83,6.72-6.93,6.64-6-5.49-16.61-4.4-21.45,3.91a14.64,14.64,0,0,0,10.82,22c5,.6,9.41-.73,12.66-4.86a10.63,10.63,0,0,0,2-4.78H25.44V20.71H48.05a24.93,24.93,0,0,1,.4,7A23.47,23.47,0,0,1,44.11,40.3,21.24,21.24,0,0,1,29,49c-7.73,1-14.64-1-20.24-6.49C1.76,35.68-.48,27.29,2.42,18S11.87,2.74,21.56,1.35A35.2,35.2,0,0,1,27.45,1Z"/></g></svg>