<svg id="671261a8-6543-4f1f-9708-b58d0104ec47" data-name="Layer 1" xmlns="http://www.w3.org/2000/svg" viewBox="0 0 50 50">
  <title>gt</title>
  <path d="M46.73,49.5A3.25,3.25,0,0,0,50,46.28V13.47a3.25,3.25,0,0,0-3.27-3.22H14.85L27.65,49.5Z" style="fill: #f1f1f1"/>
  <polygon points="36.04 40.23 27.71 49.5 24.67 40.23 36.04 40.23" style="fill: #005185"/>
  <path
    d="M46.9,23.85V21.93H37.65v-3.1h-3v3.1h-5.9v1.92H40.5a17,17,0,0,1-3.37,5.92C34.73,26.93,34.72,26,34.72,26h-2.5s.1,1.38,3.47,5.33a25.13,25.13,0,0,1-1.92,1.78l.76,2.39s1.16-1,2.61-2.53c1.45,1.58,3.33,3.47,5.75,5.73l1.58-1.58c-2.6-2.35-4.51-4.22-5.9-5.72,1.87-2.22,3.78-5,4.18-7.57H46.9Z"
    style="fill: #4a4a4a"/>
  <path d="M4.17.39A3.28,3.28,0,0,0,.9,3.66V37a3.28,3.28,0,0,0,3.27,3.26H36.05L23.25.39Z" style="fill: #94aacd"/>
  <path d="M21.66,19h-7v2.89h4c-.38,1.84-1.94,2.9-4,2.9a4.43,4.43,0,0,1,0-8.86,4.35,4.35,0,0,1,2.76,1l2.18-2.18a7.49,7.49,0,1,0-4.94,13.12,7.07,7.07,0,0,0,7.15-7.5A6.33,6.33,0,0,0,21.66,19Z" style="fill: #fff"/>
  <path d="M27.18,10.25H46.73A3.25,3.25,0,0,1,50,13.47V33.15Z" style="fill: #fff;opacity: 0.20000000298023224;isolation: isolate"/>
</svg>
