<svg id="fac77e0f-f1c7-4f88-afe3-87462e99a6fd" data-name="Layer 1" xmlns="http://www.w3.org/2000/svg" width="4.36cm" height="4.81cm" viewBox="0 0 123.68 136.37">
<title>logo-icon</title>
<path class="f1f7bf63-1e65-4822-ac41-72be6a7201b9" d="M19.42,45.7l0-.08A58.3,58.3,0,0,1,31.26,27.08a55.4,55.4,0,0,1,18.07-12.6A56.47,56.47,0,0,1,72.2,9.87a67.82,67.82,0,0,1,13.71,1.28,58,58,0,0,1,11.5,3.63,52.15,52.15,0,0,1,9.91,5.69,83.77,83.77,0,0,1,8.43,7.1l3.74,3.59-15,16.14-3.86-3.6a59.16,59.16,0,0,0-12.95-9.26,33.48,33.48,0,0,0-15.6-3.35A32.83,32.83,0,0,0,47.63,41.55a36.08,36.08,0,0,0-7.27,11.68A40,40,0,0,0,37.72,67.9,41.17,41.17,0,0,0,39.78,81c-1.2-1-2.38-2.1-3.52-3.24A60.08,60.08,0,0,1,19.42,45.7"/>
<path class="f1f7bf63-1e65-4822-ac41-72be6a7201b9" d="M73.67,46.57A21.49,21.49,0,1,1,52.18,68.06,21.49,21.49,0,0,1,73.67,46.57m42.8,60.07a78.12,78.12,0,0,1-8.85,7.91,56.77,56.77,0,0,1-10.24,6.2,57.75,57.75,0,0,1-11.72,4,54.26,54.26,0,0,1-13.9,1.45C15,124.47-7.11,71.12,8.42,22.56,5.29,54.4,17.62,73.91,29,85.16c11.13,11,24.95,17.41,36.72,19.27a34.54,34.54,0,0,0,6.37.58,34.66,34.66,0,0,0,15.73-3.3,58.19,58.19,0,0,0,13.64-10l3.7-3.55,15,14.7Z"/>
</svg>
