<svg id="f4631112-3e97-4ecf-bcd0-4e9f575726b5" data-name="Layer 1" xmlns="http://www.w3.org/2000/svg" width="4.36cm" height="4.81cm" viewBox="0 0 123.68 136.37"><defs><style>.a8f344b6-6c51-47e7-927f-2deb2ef85e5a{fill:#005180;fill-rule:evenodd;}</style></defs><title>logo-icon</title><path class="a8f344b6-6c51-47e7-927f-2deb2ef85e5a" d="M21.44,45.7l0-.08A58.3,58.3,0,0,1,33.28,27.08a55.51,55.51,0,0,1,18.07-12.6A56.54,56.54,0,0,1,74.22,9.87a67.92,67.92,0,0,1,13.72,1.28,57.9,57.9,0,0,1,11.49,3.63,51.84,51.84,0,0,1,9.91,5.69,81.6,81.6,0,0,1,8.43,7.1l3.74,3.59-15,16.14-3.86-3.6a59.22,59.22,0,0,0-13-9.26,33.41,33.41,0,0,0-15.59-3.35A32.87,32.87,0,0,0,49.65,41.55a36.42,36.42,0,0,0-7.27,11.68A40.17,40.17,0,0,0,39.75,67.9,41.17,41.17,0,0,0,41.81,81Q40,79.51,38.28,77.8A60.22,60.22,0,0,1,21.44,45.7"/><path class="a8f344b6-6c51-47e7-927f-2deb2ef85e5a" d="M75.7,46.57A21.49,21.49,0,1,1,54.21,68.06,21.49,21.49,0,0,1,75.7,46.57m42.8,60.07a78.21,78.21,0,0,1-8.86,7.91,56.69,56.69,0,0,1-10.23,6.2,57.84,57.84,0,0,1-11.73,4,54.21,54.21,0,0,1-13.9,1.45C17,124.47-5.09,71.12,10.44,22.56,7.32,54.4,19.65,73.91,31,85.16c11.14,11,25,17.41,36.72,19.27a34.73,34.73,0,0,0,6.38.58,34.59,34.59,0,0,0,15.72-3.3,58,58,0,0,0,13.65-10l3.69-3.55,15,14.7Z"/></svg>