<svg id="b0ba1a6b-50a9-42a7-bdec-cbf0d1906f5e" data-name="b58a4ca4-8622-464c-a737-3a724d7a1931" xmlns="http://www.w3.org/2000/svg" xmlns:xlink="http://www.w3.org/1999/xlink" viewBox="0 0 470.27 116.33">
  <defs>
    <style>
      .a55b4e8c-144c-43da-a1a7-44eb660f3101 {
        fill: none;
      }

      .b04b6cfd-c69c-43d6-a19c-b434869fa009 {
        clip-path: url(#af450f15-3edb-402a-abe5-ef22e97fac32);
      }

      .b8b605c2-2d42-44f2-9ccd-9833b8d0e67b, .eb682dc7-9c9c-484d-a3e1-875f60e40f6e {
        fill: #fff;
      }

      .b8b605c2-2d42-44f2-9ccd-9833b8d0e67b {
        fill-rule: evenodd;
      }

      .a000009d-cdec-471d-8a4c-6d229d50bdf2 {
        clip-path: url(#b7fd1f30-0722-431c-9b58-fbb7476e58e3);
      }
    </style>
    <clipPath id="af450f15-3edb-402a-abe5-ef22e97fac32" transform="translate(-9 -9.63)">
      <rect class="a55b4e8c-144c-43da-a1a7-44eb660f3101" width="488.92" height="134.98"/>
    </clipPath>
    <clipPath id="b7fd1f30-0722-431c-9b58-fbb7476e58e3" transform="translate(-9 -9.63)">
      <path class="a55b4e8c-144c-43da-a1a7-44eb660f3101" d="M446.56,69.25h7.2V52.89h18.31V69.25h7.2v-39h-7.2V46.38H453.76V30.25h-7.2ZM436.18,64V47.55H420.25v6h9v7.16l-.37.26a15.26,15.26,0,0,1-9,2.61c-7.9,0-13.23-6.07-13.23-13.81v-.15c0-7,5.25-13.58,12.59-13.58a15.52,15.52,0,0,1,10.53,3.79l4.52-5.46c-4.49-3.6-8.86-4.83-14.76-4.83-11.46,0-20.49,8.7-20.49,20.2v.12c0,11.93,8.72,20.08,20.55,20.08A25.54,25.54,0,0,0,436.18,64ZM390,30.25h-7.2V52.72c0,6.28-3.11,10.67-9.67,10.67s-9.67-4.66-9.67-11V30.25h-7.2V52.62c0,10.93,5.73,17.23,16.76,17.23,11.18,0,17-6.42,17-17.52ZM322.72,54l6.73-16.43L336.19,54Zm-13.41,15.3h7.21l3.72-9.14h18.43l3.73,9.14h7.44L333.12,30H326Zm-32-6.09V52.42h11.25c3.56,0,7.53,1.07,7.53,5.31v.12c0,4.14-3.71,5.31-7.24,5.31Zm0-16.43V36.35h9.74c3.31,0,6.76,1.23,6.76,5.07v.12c0,4.16-3.88,5.19-7.34,5.19Zm-7-16.48v39h18.51c6.84,0,14.38-2.21,14.38-10.3v-.11c0-5-2.59-7.49-7.06-9.2L294.38,49l1.64-.92c3.19-1.79,4.91-4.29,4.91-8v-.12a8.55,8.55,0,0,0-2.55-6.31c-2.58-2.57-6.52-3.35-10-3.35ZM234.69,54l6.74-16.43L248.16,54Zm-13.43,15.3h7.22l3.72-9.14h18.43l3.73,9.14h7.43L245.08,30H238Zm-33,0h27.52V62.87H195.47V30.25h-7.21Zm-14.12-29L178.72,35c-4.28-4-8.88-5.47-14.86-5.47-11.56,0-20.36,8.63-20.36,20.2v.12a19.69,19.69,0,0,0,19.29,20.08h.7c6.56,0,11.08-1.91,15.48-6.39L174.46,59c-3.2,2.79-6.16,4.44-10.68,4.44-7.61,0-12.7-6.37-12.7-13.7v-.09c0-7.27,5.16-13.58,12.7-13.58,4.12,0,7.36,1.69,10.36,4.25Z"/>
    </clipPath>
  </defs>
  <title>logo-white</title>
  <g class="b04b6cfd-c69c-43d6-a19c-b434869fa009">
    <g>
      <path class="b8b605c2-2d42-44f2-9ccd-9833b8d0e67b" d="M24.84,45.44v-.07A58.31,58.31,0,0,1,36.67,26.84a55.21,55.21,0,0,1,18.07-12.6A56.54,56.54,0,0,1,77.61,9.63a67.72,67.72,0,0,1,13.7,1.28,57.11,57.11,0,0,1,11.5,3.62,52.69,52.69,0,0,1,9.91,5.69,84,84,0,0,1,8.43,7.1l3.74,3.59-15,16.14L106,43.45a59,59,0,0,0-13-9.27,33.61,33.61,0,0,0-15.59-3.34A32.91,32.91,0,0,0,53,41.29,36.12,36.12,0,0,0,45.77,53a40,40,0,0,0-2.64,14.64,41.21,41.21,0,0,0,2.06,13.17c-1.2-1-2.38-2.1-3.52-3.24A60.12,60.12,0,0,1,24.84,45.44" transform="translate(-9 -9.63)"/>
      <path class="b8b605c2-2d42-44f2-9ccd-9833b8d0e67b" d="M79.08,46.31A21.5,21.5,0,1,1,57.59,67.82h0a21.51,21.51,0,0,1,21.49-21.5m42.79,60.06a78.12,78.12,0,0,1-8.85,7.91,56.82,56.82,0,0,1-10.24,6.21,58.94,58.94,0,0,1-11.72,4,55,55,0,0,1-13.89,1.45C20.37,124.2-1.69,70.87,13.84,22.32,10.71,54.14,23,73.62,34.37,84.91c11.13,11,25,17.4,36.72,19.26a34,34,0,0,0,6.37.57,34.55,34.55,0,0,0,15.72-3.3,57.47,57.47,0,0,0,13.64-10l3.7-3.54,15,14.7Z" transform="translate(-9 -9.63)"/>
      <path class="b8b605c2-2d42-44f2-9ccd-9833b8d0e67b" d="M446.56,69.25h7.2V52.89h18.31V69.25h7.2v-39h-7.2V46.38H453.76V30.25h-7.2ZM436.18,64V47.55H420.25v6h9v7.16l-.37.26a15.26,15.26,0,0,1-9,2.61c-7.9,0-13.23-6.07-13.23-13.81v-.15c0-7,5.25-13.58,12.59-13.58a15.52,15.52,0,0,1,10.53,3.79l4.52-5.46c-4.49-3.6-8.86-4.83-14.76-4.83-11.46,0-20.49,8.7-20.49,20.2v.12c0,11.93,8.72,20.08,20.55,20.08A25.54,25.54,0,0,0,436.18,64ZM390,30.25h-7.2V52.72c0,6.28-3.11,10.67-9.67,10.67s-9.67-4.66-9.67-11V30.25h-7.2V52.62c0,10.93,5.73,17.23,16.76,17.23,11.18,0,17-6.42,17-17.52ZM322.72,54l6.73-16.43L336.19,54Zm-13.41,15.3h7.21l3.72-9.14h18.43l3.73,9.14h7.44L333.12,30H326Zm-32-6.09V52.42h11.25c3.56,0,7.53,1.07,7.53,5.31v.12c0,4.14-3.71,5.31-7.24,5.31Zm0-16.43V36.35h9.74c3.31,0,6.76,1.23,6.76,5.07v.12c0,4.16-3.88,5.19-7.34,5.19Zm-7-16.48v39h18.51c6.84,0,14.38-2.21,14.38-10.3v-.11c0-5-2.59-7.49-7.06-9.2L294.38,49l1.64-.92c3.19-1.79,4.91-4.29,4.91-8v-.12a8.55,8.55,0,0,0-2.55-6.31c-2.58-2.57-6.52-3.35-10-3.35ZM234.69,54l6.74-16.43L248.16,54Zm-13.43,15.3h7.22l3.72-9.14h18.43l3.73,9.14h7.43L245.08,30H238Zm-33,0h27.52V62.87H195.47V30.25h-7.21Zm-14.12-29L178.72,35c-4.28-4-8.88-5.47-14.86-5.47-11.56,0-20.36,8.63-20.36,20.2v.12a19.69,19.69,0,0,0,19.29,20.08h.7c6.56,0,11.08-1.91,15.48-6.39L174.46,59c-3.2,2.79-6.16,4.44-10.68,4.44-7.61,0-12.7-6.37-12.7-13.7v-.09c0-7.27,5.16-13.58,12.7-13.58,4.12,0,7.36,1.69,10.36,4.25Z" transform="translate(-9 -9.63)"/>
      <g class="a000009d-cdec-471d-8a4c-6d229d50bdf2">
        <rect class="eb682dc7-9c9c-484d-a3e1-875f60e40f6e" x="134.48" y="19.93" width="335.78" height="40.39"/>
      </g>
      <path class="b8b605c2-2d42-44f2-9ccd-9833b8d0e67b" d="M476.28,88.61l2.12-3.07a13.08,13.08,0,0,0-8-2.56c-4,0-7.64,2.2-7.63,6.51v.12c0,4.63,3.47,5.64,7.33,6.62,1.79.46,5,1,5,3.42v.07c0,2-2.13,2.67-3.84,2.67a10.82,10.82,0,0,1-6.86-2.62l-2.4,2.88a14.33,14.33,0,0,0,9.17,3.28c4.27,0,8-2,8-6.71v-.07c0-4.27-3.39-5.56-7-6.49-1.92-.49-5.37-1-5.37-3.51v-.07c0-1.85,1.9-2.5,3.46-2.5a11.07,11.07,0,0,1,5.91,2.09m-23,13.68-2.59-2.61a8.51,8.51,0,0,1-6.08,2.54c-4.33,0-7.22-3.62-7.22-7.78v-.06c0-4.14,2.92-7.71,7.21-7.71a8.72,8.72,0,0,1,5.89,2.4l2.62-3A11.5,11.5,0,0,0,444.52,83a11.3,11.3,0,0,0-11.6,11,4.17,4.17,0,0,0,0,.5v.06a11.74,11.74,0,0,0,20.25,7.78Zm-35,3.26h4.14V83.39h-4.13Zm-21.25,0h4.13V87.09h7.06V83.37H389.83v3.72h7.1Zm-36.55,0h4.06V89.91l12,15.7H380V83.38h-4.1V98.61L364.32,83.39h-4Zm-22.3-3.32a7.54,7.54,0,0,1-7.52-7.55v-.29a7.42,7.42,0,0,1,7.13-7.7h.25a7.51,7.51,0,0,1,7.52,7.51v.35a7.42,7.42,0,0,1-7.14,7.69h-.24ZM338,106c6.55,0,11.87-4.86,11.87-11.52v-.07c0-6.64-5.26-11.43-11.82-11.43s-11.88,4.86-11.87,11.51v.1c0,6.62,5.23,11.42,11.8,11.42Zm-37.54-4V87h4.43a7.15,7.15,0,0,1,7.49,6.78q0,.35,0,.69v.12a7.11,7.11,0,0,1-6.76,7.43,5.77,5.77,0,0,1-.72,0Zm-4.13,3.64h8.56c6.54,0,11.85-4.41,11.84-11.12v-.07c0-6.72-5.33-11-11.85-11h-8.56Zm-22.3-3.32a7.55,7.55,0,0,1-7.54-7.55v-.24a7.44,7.44,0,0,1,7.08-7.76c.12,0,.24,0,.36,0a7.52,7.52,0,0,1,7.52,7.55v.27a7.44,7.44,0,0,1-7.14,7.73h-.28Zm-.06,3.73c6.55,0,11.87-4.86,11.87-11.52v-.07c0-6.64-5.25-11.43-11.82-11.42s-11.89,4.85-11.89,11.55h0c0,6.66,5.26,11.47,11.8,11.46Zm-40.94-.37h4.14V96.38h10.39v9.31h4.13V83.47h-4.13v9.14H237.16V83.48H233Zm-21,0h4.13V87.21h7.06V83.49H205v3.72h7ZM181.78,94.77V87.14h5.56c2.45,0,4.5,1.1,4.5,3.8V91c0,2.54-2,3.77-4.4,3.77Zm-4.12,11h4.13V98.31h4.75l5,7.43h4.79l-5.51-8,.59-.22a6.73,6.73,0,0,0,4.65-6.74v-.07a6.87,6.87,0,0,0-1.85-5,8.85,8.85,0,0,0-6.42-2.21H177.65Zm-22.3-3.33a7.54,7.54,0,0,1-7.52-7.55v-.28h0a7.42,7.42,0,0,1,7.13-7.7h.32a7.54,7.54,0,0,1,7.52,7.56v.22a7.43,7.43,0,0,1-7.1,7.73h-.35Zm-.06,3.74a11.52,11.52,0,0,0,11.87-11.52v0c0-6.64-5.26-11.43-11.82-11.43S143.49,88,143.49,94.61v.07c0,6.67,5.24,11.47,11.81,11.47Z" transform="translate(-9 -9.63)"/>
    </g>
  </g>
</svg>
