<svg id="a3ab39b2-a1eb-4c1a-bc50-2b70f3d1531a" data-name="Layer 1" xmlns="http://www.w3.org/2000/svg" xmlns:xlink="http://www.w3.org/1999/xlink" width="17.3cm" height="4.81cm" viewBox="0 0 490.35 136.37"><defs><style>.b5d162cd-c3c5-4a76-bc9c-9c49b7e32c78{fill:none;}.b70a757a-cfd7-464e-ab18-5d2e2b786b39,.bbb7010c-36a8-4761-93bf-00c3c25a51e1,.bf816d73-0ba5-4a07-ba19-265a6d35a0a2{fill:#005180;}.b70a757a-cfd7-464e-ab18-5d2e2b786b39{clip-rule:evenodd;}.baaaa7f4-d8bb-44ee-9cca-09b1735db464{clip-path:url(#a26dd75c-6ef4-45ab-a7f5-287e61951df7);}.bbb7010c-36a8-4761-93bf-00c3c25a51e1{fill-rule:evenodd;}.e8ccd1a1-a12d-4ebc-b08c-e4cd42fa245f{clip-path:url(#fccd51bf-61d4-4a1a-89d1-f348641662e3);}</style><clipPath id="a26dd75c-6ef4-45ab-a7f5-287e61951df7"><rect class="b5d162cd-c3c5-4a76-bc9c-9c49b7e32c78" x="-5" y="0.37" width="489" height="135"/></clipPath><clipPath id="fccd51bf-61d4-4a1a-89d1-f348641662e3"><path class="b70a757a-cfd7-464e-ab18-5d2e2b786b39" d="M441.64,69.63h7.2V53.27h18.31V69.63h7.2v-39h-7.2V46.76H448.84V30.63h-7.2Zm-10.38-5.29V47.93H415.32v6h9v7.16l-.37.26a15.24,15.24,0,0,1-9,2.61c-7.9,0-13.23-6.07-13.23-13.81V50c0-7,5.25-13.58,12.59-13.58a15.44,15.44,0,0,1,10.53,3.79l4.53-5.46c-4.5-3.6-8.87-4.83-14.77-4.83-11.46,0-20.49,8.7-20.49,20.2v.12c0,11.93,8.72,20.08,20.55,20.08A25.56,25.56,0,0,0,431.26,64.34ZM385.07,30.63h-7.2V53.1c0,6.28-3.11,10.67-9.68,10.67s-9.67-4.66-9.67-11V30.63h-7.2V53c0,10.93,5.73,17.23,16.76,17.23,11.19,0,17-6.42,17-17.52Zm-67.29,23.7,6.73-16.43,6.74,16.43Zm-13.42,15.3h7.21l3.73-9.14h18.43l3.73,9.14h7.44L328.18,30.34h-7.1Zm-32-6.09V52.8h11.25c3.56,0,7.53,1.07,7.53,5.31v.12c0,4.14-3.71,5.31-7.24,5.31Zm0-16.43V36.73h9.74c3.31,0,6.76,1.23,6.76,5.07v.12c0,4.16-3.88,5.19-7.34,5.19Zm-7-16.48v39h18.51c6.84,0,14.38-2.21,14.38-10.3v-.11c0-5-2.59-7.49-7.06-9.2l-1.76-.67,1.64-.92c3.19-1.79,4.91-4.29,4.91-8v-.12A8.51,8.51,0,0,0,293.43,34c-2.58-2.57-6.52-3.35-10-3.35Zm-35.63,23.7,6.74-16.43,6.73,16.43ZM216.3,69.63h7.22l3.72-9.14h18.43l3.73,9.14h7.44L240.12,30.34H233Zm-33,0h27.53V63.25H190.5V30.63h-7.21Zm-14.12-29,4.57-5.27c-4.28-4-8.88-5.47-14.86-5.47-11.56,0-20.37,8.63-20.37,20.2v.12a19.69,19.69,0,0,0,20,20.08c6.56,0,11.08-1.91,15.48-6.39l-4.51-4.55c-3.2,2.79-6.16,4.44-10.68,4.44-7.61,0-12.7-6.37-12.7-13.7V50c0-7.27,5.16-13.58,12.7-13.58C162.93,36.43,166.17,38.11,169.17,40.67Z"/></clipPath></defs><title>logo-color</title><g class="baaaa7f4-d8bb-44ee-9cca-09b1735db464"><path class="bbb7010c-36a8-4761-93bf-00c3c25a51e1" d="M19.84,45.82l0-.07A58.19,58.19,0,0,1,31.68,27.21a55.25,55.25,0,0,1,18.07-12.6A56.47,56.47,0,0,1,72.62,10a67.82,67.82,0,0,1,13.71,1.28,58,58,0,0,1,11.5,3.62,52.69,52.69,0,0,1,9.91,5.69,83.77,83.77,0,0,1,8.43,7.1l3.74,3.6-15,16.14L101,43.83a59.21,59.21,0,0,0-13-9.27,33.6,33.6,0,0,0-15.6-3.34A32.87,32.87,0,0,0,48.05,41.67a36.12,36.12,0,0,0-7.27,11.69A40,40,0,0,0,38.14,68,41.17,41.17,0,0,0,40.2,81.17c-1.2-1-2.38-2.1-3.52-3.24A60.08,60.08,0,0,1,19.84,45.82"/><path class="bbb7010c-36a8-4761-93bf-00c3c25a51e1" d="M74.09,46.69A21.5,21.5,0,1,1,52.6,68.19a21.51,21.51,0,0,1,21.49-21.5m42.8,60.07a78.12,78.12,0,0,1-8.85,7.91,56.82,56.82,0,0,1-10.24,6.21,58.37,58.37,0,0,1-11.72,4,54.7,54.7,0,0,1-13.9,1.45C15.37,124.59-6.69,71.25,8.84,22.69,5.71,54.52,18,74,29.38,85.29c11.13,11,25,17.41,36.72,19.27a34.54,34.54,0,0,0,6.37.57,34.53,34.53,0,0,0,15.73-3.3,57.91,57.91,0,0,0,13.64-10l3.7-3.54,15,14.7Z"/><path class="bbb7010c-36a8-4761-93bf-00c3c25a51e1" d="M441.64,69.63h7.2V53.27h18.31V69.63h7.2v-39h-7.2V46.76H448.84V30.63h-7.2Zm-10.38-5.29V47.93H415.32v6h9v7.16l-.37.26a15.24,15.24,0,0,1-9,2.61c-7.9,0-13.23-6.07-13.23-13.81V50c0-7,5.25-13.58,12.59-13.58a15.44,15.44,0,0,1,10.53,3.79l4.53-5.46c-4.5-3.6-8.87-4.83-14.77-4.83-11.46,0-20.49,8.7-20.49,20.2v.12c0,11.93,8.72,20.08,20.55,20.08A25.56,25.56,0,0,0,431.26,64.34ZM385.07,30.63h-7.2V53.1c0,6.28-3.11,10.67-9.68,10.67s-9.67-4.66-9.67-11V30.63h-7.2V53c0,10.93,5.73,17.23,16.76,17.23,11.19,0,17-6.42,17-17.52Zm-67.29,23.7,6.73-16.43,6.74,16.43Zm-13.42,15.3h7.21l3.73-9.14h18.43l3.73,9.14h7.44L328.18,30.34h-7.1Zm-32-6.09V52.8h11.25c3.56,0,7.53,1.07,7.53,5.31v.12c0,4.14-3.71,5.31-7.24,5.31Zm0-16.43V36.73h9.74c3.31,0,6.76,1.23,6.76,5.07v.12c0,4.16-3.88,5.19-7.34,5.19Zm-7-16.48v39h18.51c6.84,0,14.38-2.21,14.38-10.3v-.11c0-5-2.59-7.49-7.06-9.2l-1.76-.67,1.64-.92c3.19-1.79,4.91-4.29,4.91-8v-.12A8.51,8.51,0,0,0,293.43,34c-2.58-2.57-6.52-3.35-10-3.35Zm-35.63,23.7,6.74-16.43,6.73,16.43ZM216.3,69.63h7.22l3.72-9.14h18.43l3.73,9.14h7.44L240.12,30.34H233Zm-33,0h27.53V63.25H190.5V30.63h-7.21Zm-14.12-29,4.57-5.27c-4.28-4-8.88-5.47-14.86-5.47-11.56,0-20.37,8.63-20.37,20.2v.12a19.69,19.69,0,0,0,20,20.08c6.56,0,11.08-1.91,15.48-6.39l-4.51-4.55c-3.2,2.79-6.16,4.44-10.68,4.44-7.61,0-12.7-6.37-12.7-13.7V50c0-7.27,5.16-13.58,12.7-13.58C162.93,36.43,166.17,38.11,169.17,40.67Z"/><g class="e8ccd1a1-a12d-4ebc-b08c-e4cd42fa245f"><rect class="bf816d73-0ba5-4a07-ba19-265a6d35a0a2" x="138.51" y="29.93" width="335.84" height="40.4"/></g><path class="bbb7010c-36a8-4761-93bf-00c3c25a51e1" d="M471.36,89l2.12-3.08a13.07,13.07,0,0,0-8-2.56c-4,0-7.64,2.2-7.63,6.52V90c0,4.63,3.47,5.64,7.33,6.62,1.79.46,5,1.05,5,3.42v.07c0,2-2.13,2.67-3.84,2.67a10.87,10.87,0,0,1-6.86-2.62l-2.4,2.88a14.31,14.31,0,0,0,9.17,3.28c4.27,0,8-2,8-6.71v-.07c0-4.27-3.39-5.56-7-6.49-1.92-.49-5.37-1-5.37-3.51v-.07c0-1.85,1.9-2.51,3.46-2.51a11,11,0,0,1,5.91,2.1m-23,13.68-2.59-2.61a8.55,8.55,0,0,1-6.08,2.54c-4.33,0-7.22-3.62-7.22-7.78v-.06c0-4.14,2.92-7.72,7.21-7.72a8.79,8.79,0,0,1,5.89,2.41l2.62-3a11.56,11.56,0,0,0-8.48-3.12,11.32,11.32,0,0,0-11.61,11.53v.06a11.74,11.74,0,0,0,20.26,7.78ZM413.25,106h4.14l0-22.23h-4.13ZM392,106h4.13V87.48h7.06V83.75H384.9v3.73H392Zm-36.56,0h4.06V90.3l12,15.7h3.61V83.76H371V99L359.38,83.77h-4Zm-22.3-3.32a7.54,7.54,0,0,1-7.52-7.78v-.06A7.42,7.42,0,0,1,333,87.13a7.52,7.52,0,0,1,7.52,7.77V95A7.42,7.42,0,0,1,333.12,102.69Zm-.06,3.73c6.55,0,11.87-4.86,11.87-11.52v-.07c0-6.64-5.26-11.44-11.82-11.44s-11.88,4.87-11.87,11.52V95C321.24,101.62,326.49,106.42,333.06,106.42Zm-37.55-4v-15h4.43a7.14,7.14,0,0,1,7.49,7.47V95a7.1,7.1,0,0,1-7.48,7.42Zm-4.13,3.64h8.56c6.54,0,11.85-4.41,11.84-11.12v-.07c0-6.72-5.33-11-11.85-11h-8.56Zm-22.3-3.32A7.55,7.55,0,0,1,261.56,95v-.06A7.43,7.43,0,0,1,269,87.17a7.54,7.54,0,0,1,7.52,7.77V95A7.44,7.44,0,0,1,269.08,102.73Zm-.06,3.73c6.55,0,11.87-4.86,11.87-11.52v-.07c0-6.64-5.25-11.44-11.82-11.43S257.2,88.3,257.2,95V95C257.2,101.66,262.46,106.47,269,106.46Zm-40.95-.37h4.14V96.77h10.39v9.31h4.13V83.85h-4.13V93H232.2V83.86h-4.13Zm-21,0h4.13V87.6h7.06V83.87H200v3.73H207ZM176.81,95.16V87.53h5.56c2.45,0,4.5,1.1,4.5,3.8v.07c0,2.54-2,3.77-4.4,3.77Zm-4.12,11h4.13V98.7h4.75l5,7.43h4.79l-5.51-8,.59-.22a6.73,6.73,0,0,0,4.65-6.74v-.07a6.87,6.87,0,0,0-1.85-5,8.89,8.89,0,0,0-6.42-2.21H172.68Zm-22.3-3.33A7.54,7.54,0,0,1,142.87,95V95a7.42,7.42,0,0,1,7.45-7.71A7.54,7.54,0,0,1,157.84,95v.07A7.42,7.42,0,0,1,150.39,102.8Zm-.06,3.74c6.55,0,11.87-4.87,11.87-11.52V95c0-6.64-5.26-11.44-11.82-11.44S138.51,88.38,138.51,95v.07C138.51,101.74,143.76,106.54,150.33,106.54Z"/></g></svg>