<svg id="a7724a2d-98df-4200-b934-837ff6077d37" data-name="Layer 1" xmlns="http://www.w3.org/2000/svg" width="50" height="50" viewBox="0 0 50 50"><title>1</title><path d="M20.37,44.84c-2.75,0-3.25-2.56-3.83-5.52a24.37,24.37,0,0,0-2-6.71c-2.33-4.59-3.67-8.15-3.67-12.78s3-7.82,7.75-7.82a14.31,14.31,0,0,1,5.28,1,6.74,6.74,0,0,0,2.22.53V15a8,8,0,0,1-2.71-.61,12.89,12.89,0,0,0-4.79-.9c-3.94,0-6.29,2.38-6.29,6.36,0,4.36,1.24,7.62,3.52,12.12A26,26,0,0,1,18,39c.61,3.15,1,4.34,2.39,4.34s2-2.57,2.54-4.84c.64-2.61,1.24-5.08,3.17-5.08v1.47c-.78,0-1.32,2.19-1.75,4C23.65,41.68,22.88,44.84,20.37,44.84Z"/><path d="M31.79,44.84c-2.51,0-3.28-3.16-4-6-.43-1.76-1-4-1.74-4V33.46c1.93,0,2.53,2.47,3.17,5.08.55,2.27,1.18,4.84,2.54,4.84s1.77-1.19,2.39-4.34A26,26,0,0,1,36.35,32c2.28-4.5,3.52-7.76,3.52-12.12,0-4-2.35-6.36-6.3-6.36a12.12,12.12,0,0,0-3.74.55c1.69.46,3.47,1.35,4.18,3.05l-1.35.57c-.91-2.19-5-2.66-6.52-2.66h-.06V13.52h0A6.89,6.89,0,0,0,28.3,13a14.29,14.29,0,0,1,5.27-1c4.72,0,7.76,3.07,7.76,7.82S40,28,37.65,32.61a24.72,24.72,0,0,0-2,6.71C35,42.28,34.54,44.84,31.79,44.84Z"/><path d="M11.53,33.74c-3.88,0-6.66-1.07-7.67-3.23-1.17-2.51.26-5.94,4-9.66l1,1c-3.26,3.21-4.62,6.13-3.75,8,1.69,3.61,11,3.1,21.19-1.17l.57,1.35C21.1,32.51,15.69,33.74,11.53,33.74Z"/><path d="M36,25.37l-.79-1.23c7.34-4.7,11.5-10,10.12-13-1.57-3.37-10-3.15-19.52.5l-.52-1.36c10.62-4.06,19.4-4,21.37.24C48.36,14.28,44.17,20.11,36,25.37Z"/><path d="M31.09,31.45a4.13,4.13,0,1,1,4.13-4.13A4.13,4.13,0,0,1,31.09,31.45Zm0-6.79a2.67,2.67,0,1,0,2.67,2.66A2.67,2.67,0,0,0,31.09,24.66Z"/></svg>