<svg id="ea947bc9-a26f-41a4-b1fc-e53e137c4ff3" data-name="Layer 1" xmlns="http://www.w3.org/2000/svg" width="50" height="50" viewBox="0 0 50 50">
  <defs>
    <style>.af421fad-6bd5-4c76-9cc5-c14543a5da29{fill-rule:evenodd;}
    </style>
  </defs>
  <title>phone</title>
  <path class="af421fad-6bd5-4c76-9cc5-c14543a5da29" d="M33.72,31.56,42.35,42.5a.59.59,0,0,1-.09.81h0l-6.59,5.27A6.38,6.38,0,0,1,31,50c-1.63-.17-12.73-13.51-16.24-19.6a130.35,130.35,0,0,1-9-19A6.46,6.46,0,0,1,9.41,3.1L17.28,0A.56.56,0,0,1,18,.37h0l5.16,13a.58.58,0,0,1-.32.75h0l-4.4,1.72c1.48,3.2,3.15,6.4,4.95,9.53l0,0c1.79,3.11,3.73,6.14,5.76,9l3.69-3a.57.57,0,0,1,.81.09l0,0ZM17.15,15.74h0Z"/>
</svg>
