<svg id="e38a30f7-893b-4ddd-9383-089e714d810a" data-name="Layer 1" xmlns="http://www.w3.org/2000/svg" width="50" height="50" viewBox="0 0 50 50"><title>social-facebook</title><path d="M28,50V27.22h2.63c1.44,0,2.89,0,4.33,0a.86.86,0,0,0,.65-.47c.4-2.77.74-5.55,1.12-8.43H28.13c0-2.46-.14-4.83,0-7.17C28.3,9.45,29.3,8.66,31,8.49c1.35-.14,2.72-.12,4.08-.16H37V.38c-.43,0-.85-.13-1.28-.15-3.2-.16-6.42-.58-9.57.38a10,10,0,0,0-7.23,9c-.17,2.55-.12,5.12-.17,7.68,0,.32,0,.64,0,1H11.14v8.9h7.55V49.94Z"/></svg>