<svg id="b99cb33c-e6d1-469f-8800-b02b8e7d5c3e" data-name="Layer 1" xmlns="http://www.w3.org/2000/svg" width="50" height="50" viewBox="0 0 50 50"><title>1</title><path d="M47,14.12l-2.17-.92h0L26.39,5.39a4.77,4.77,0,0,0-3.78,0L2,14.12a1.46,1.46,0,0,0-.9,1.36A1.43,1.43,0,0,0,2,16.83l9.23,3.92v2.76c0,1,1.34,1.77,4.22,2.31a52.69,52.69,0,0,0,9,.69,52.69,52.69,0,0,0,9-.69c2.88-.54,4.22-1.27,4.22-2.31V20.75l6.14-2.6v2a1.85,1.85,0,0,0-.64,3,8,8,0,0,0-1,4.21.64.64,0,0,0,.19.47.67.67,0,0,0,.47.19h3.28a.67.67,0,0,0,.47-.19.68.68,0,0,0,.19-.47,8,8,0,0,0-1-4.21,1.85,1.85,0,0,0-.64-3V17.59L47,16.83a1.43,1.43,0,0,0,.9-1.35A1.46,1.46,0,0,0,47,14.12Zm-2.43,7.25a.53.53,0,0,1,.53.53.53.53,0,0,1-1.06,0A.53.53,0,0,1,44.53,21.37ZM32.82,24.6a53,53,0,0,1-8.32.59,53,53,0,0,1-8.32-.59c-2.55-.43-3.32-.91-3.53-1.09.21-.18,1-.66,3.53-1.09a53,53,0,0,1,8.32-.59,53,53,0,0,1,8.32.59c2.55.43,3.32.91,3.53,1.09C36.14,23.69,35.37,24.17,32.82,24.6ZM36.41,22a12.51,12.51,0,0,0-2.9-.82,51.6,51.6,0,0,0-9-.7,51.6,51.6,0,0,0-9,.7,12.51,12.51,0,0,0-2.9.82V16.71c.1-.11.7-.65,3.59-1.14A53,53,0,0,1,24.5,15a53,53,0,0,1,8.32.59c2.89.49,3.49,1,3.59,1.14Zm1.32-2.71V16.66c0-1-1.34-1.77-4.22-2.31a51.6,51.6,0,0,0-9-.7,51.6,51.6,0,0,0-9,.7c-2.88.54-4.22,1.27-4.22,2.31v2.66l-8.72-3.7a.15.15,0,0,1-.09-.14.14.14,0,0,1,.09-.14L23.12,6.6a3.54,3.54,0,0,1,2.76,0l18,7.64v2.47Zm7.76,7.44H43.57c.13-1.93.72-2.94,1-3S45.36,24.83,45.49,26.76Zm1-11.14-1.26.53V14.81l1.26.53a.14.14,0,0,1,.09.14A.15.15,0,0,1,46.45,15.62Z"/><path d="M37.75,32.82H13.1a6.57,6.57,0,0,0-6.84,5.5.7.7,0,0,0,.15.54.7.7,0,0,0,.51.23h3.14a3.69,3.69,0,0,0,.7,2.17,3.64,3.64,0,0,0,2.07,1.41.65.65,0,0,0,.39.12H28.81l-.65,2.38a.66.66,0,1,0,1.28.34l.74-2.72h.38l.74,2.72a.65.65,0,0,0,.63.49l.18,0a.66.66,0,0,0,.46-.81l-.64-2.38h5.82a5,5,0,1,0,0-10Zm-27.42,5H7.75a5.22,5.22,0,0,1,1.93-2.65,5.16,5.16,0,0,1,3.9-.92,4,4,0,0,1,2.72,1.73H13.25A3.08,3.08,0,0,0,10.33,37.77Zm3,3.66a2.34,2.34,0,0,1-1.95-2.7.5.5,0,0,1,0-.12.43.43,0,0,0,0,0,1.76,1.76,0,0,1,2-1.28,1.27,1.27,0,0,1,1.06,1.45.66.66,0,0,0,.65.77h1.63A3.12,3.12,0,0,1,13.37,41.43Zm2.43-3.25a2.45,2.45,0,0,0-.31-.92h1.39a3.46,3.46,0,0,1,.12.92Zm13.3,1.65A3.68,3.68,0,0,1,26,41.47H17a4.36,4.36,0,0,0,1.22-2.4A5.39,5.39,0,0,0,18,36.41l0-.09a5.48,5.48,0,0,0-1.53-2.18H26A3.66,3.66,0,0,1,29.21,36a2.27,2.27,0,0,0-.11,3.86Zm1.27-.93a1,1,0,1,1,0-1.93,1,1,0,0,1,0,1.93Zm7.38,2.57H31.57l-.38-1.41a2.28,2.28,0,0,0-.65-4.4,5,5,0,0,0-1.12-1.52h8.33a3.67,3.67,0,1,1,0,7.33Z"/></svg>